<mxfile host="65bd71144e">
    <diagram id="CzcfdOejTinxfoWS3dAc" name="Page-1">
        <mxGraphModel dx="730" dy="656" grid="1" gridSize="10" guides="1" tooltips="1" connect="1" arrows="1" fold="1" page="1" pageScale="1" pageWidth="850" pageHeight="1100" math="0" shadow="0">
            <root>
                <mxCell id="0"/>
                <mxCell id="1" parent="0"/>
                <mxCell id="6" style="edgeStyle=none;html=1;entryX=0.5;entryY=0;entryDx=0;entryDy=0;fontSize=14;" parent="1" target="4" edge="1">
                    <mxGeometry relative="1" as="geometry">
                        <mxPoint x="330" y="90" as="sourcePoint"/>
                    </mxGeometry>
                </mxCell>
                <mxCell id="7" value="" style="edgeStyle=none;html=1;fontSize=14;entryX=0.5;entryY=0;entryDx=0;entryDy=0;" parent="1" source="4" target="9" edge="1">
                    <mxGeometry relative="1" as="geometry">
                        <mxPoint x="330" y="290" as="targetPoint"/>
                    </mxGeometry>
                </mxCell>
                <mxCell id="4" value="&lt;span style=&quot;font-family: Consolas, &amp;quot;Courier New&amp;quot;, monospace; color: rgb(78, 201, 176);&quot;&gt;System&lt;/span&gt;&lt;span style=&quot;color: rgb(212, 212, 212); font-family: Consolas, &amp;quot;Courier New&amp;quot;, monospace; background-color: rgb(30, 30, 30);&quot;&gt;.&lt;/span&gt;&lt;span style=&quot;font-family: Consolas, &amp;quot;Courier New&amp;quot;, monospace; color: rgb(78, 201, 176);&quot;&gt;Console&lt;/span&gt;&lt;span style=&quot;color: rgb(212, 212, 212); font-family: Consolas, &amp;quot;Courier New&amp;quot;, monospace; background-color: rgb(30, 30, 30);&quot;&gt;.&lt;/span&gt;&lt;span style=&quot;font-family: Consolas, &amp;quot;Courier New&amp;quot;, monospace; color: rgb(220, 220, 170);&quot;&gt;WriteLine&lt;/span&gt;&lt;span style=&quot;color: rgb(212, 212, 212); font-family: Consolas, &amp;quot;Courier New&amp;quot;, monospace; background-color: rgb(30, 30, 30);&quot;&gt;(&lt;/span&gt;&lt;span style=&quot;font-family: Consolas, &amp;quot;Courier New&amp;quot;, monospace; color: rgb(156, 220, 254);&quot;&gt;text&lt;/span&gt;&lt;span style=&quot;color: rgb(212, 212, 212); font-family: Consolas, &amp;quot;Courier New&amp;quot;, monospace; background-color: rgb(30, 30, 30);&quot;&gt;);&lt;/span&gt;" style="shape=parallelogram;perimeter=parallelogramPerimeter;whiteSpace=wrap;html=1;fixedSize=1;fontSize=14;" parent="1" vertex="1">
                    <mxGeometry x="187.5" y="140" width="285" height="60" as="geometry"/>
                </mxCell>
                <mxCell id="9" value="&lt;div style=&quot;color: rgb(212, 212, 212); background-color: rgb(30, 30, 30); font-family: Consolas, &amp;quot;Courier New&amp;quot;, monospace; line-height: 19px;&quot;&gt;&lt;font style=&quot;font-size: 12px;&quot;&gt;&lt;span style=&quot;color: #c586c0;&quot;&gt;return&lt;/span&gt; &lt;span style=&quot;color: #4ec9b0;&quot;&gt;Convert&lt;/span&gt;.&lt;span style=&quot;color: #dcdcaa;&quot;&gt;ToInt32&lt;/span&gt;(&lt;span style=&quot;color: #4ec9b0;&quot;&gt;Console&lt;/span&gt;.&lt;span style=&quot;color: #dcdcaa;&quot;&gt;ReadLine&lt;/span&gt;());&lt;/font&gt;&lt;/div&gt;" style="shape=parallelogram;perimeter=parallelogramPerimeter;whiteSpace=wrap;html=1;fixedSize=1;fontSize=14;" parent="1" vertex="1">
                    <mxGeometry x="162.5" y="250" width="335" height="100" as="geometry"/>
                </mxCell>
                <mxCell id="10" value="&lt;span style=&quot;font-family: Consolas, &amp;quot;Courier New&amp;quot;, monospace; font-size: 14px; color: rgb(86, 156, 214);&quot;&gt;int&lt;/span&gt;&lt;span style=&quot;color: rgb(212, 212, 212); font-family: Consolas, &amp;quot;Courier New&amp;quot;, monospace; font-size: 14px; background-color: rgb(30, 30, 30);&quot;&gt;&amp;nbsp;&lt;/span&gt;&lt;span style=&quot;font-family: Consolas, &amp;quot;Courier New&amp;quot;, monospace; font-size: 14px; color: rgb(220, 220, 170);&quot;&gt;GetNumber&lt;/span&gt;&lt;span style=&quot;color: rgb(212, 212, 212); font-family: Consolas, &amp;quot;Courier New&amp;quot;, monospace; font-size: 14px; background-color: rgb(30, 30, 30);&quot;&gt;(&lt;/span&gt;&lt;span style=&quot;font-family: Consolas, &amp;quot;Courier New&amp;quot;, monospace; font-size: 14px; color: rgb(86, 156, 214);&quot;&gt;string&lt;/span&gt;&lt;span style=&quot;color: rgb(212, 212, 212); font-family: Consolas, &amp;quot;Courier New&amp;quot;, monospace; font-size: 14px; background-color: rgb(30, 30, 30);&quot;&gt;&amp;nbsp;&lt;/span&gt;&lt;span style=&quot;font-family: Consolas, &amp;quot;Courier New&amp;quot;, monospace; font-size: 14px; color: rgb(156, 220, 254);&quot;&gt;text&lt;/span&gt;&lt;span style=&quot;color: rgb(212, 212, 212); font-family: Consolas, &amp;quot;Courier New&amp;quot;, monospace; font-size: 14px; background-color: rgb(30, 30, 30);&quot;&gt;)&lt;/span&gt;" style="ellipse;whiteSpace=wrap;html=1;" vertex="1" parent="1">
                    <mxGeometry x="210" y="10" width="240" height="80" as="geometry"/>
                </mxCell>
            </root>
        </mxGraphModel>
    </diagram>
</mxfile>